<?xml version="1.0" encoding="iso-8859-1"?>
<!-- Uploaded to: SVG Repo, www.svgrepo.com, Generator: SVG Repo Mixer Tools -->
<svg height="800px" width="800px" version="1.1" id="Layer_1" xmlns="http://www.w3.org/2000/svg" xmlns:xlink="http://www.w3.org/1999/xlink" 
	 viewBox="0 0 512 512" xml:space="preserve">
<path style="fill:#FFFFFF;" d="M256,508C117.048,508,4,394.952,4,256S117.048,4,256,4s252,113.048,252,252S394.952,508,256,508z"/>
<path style="fill:#E21B1B;" d="M256,8c136.744,0,248,111.256,248,248S392.744,504,256,504S8,392.744,8,256S119.256,8,256,8 M256,0
	C114.616,0,0,114.616,0,256s114.616,256,256,256s256-114.616,256-256S397.384,0,256,0L256,0z"/>
<circle cx="358.488" cy="382.208" r="40.32"/>
<circle style="fill:#999999;" cx="358.488" cy="382.208" r="19.6"/>
<polygon points="206.44,185.776 179.944,107.352 111.328,107.352 111.328,86.392 194.984,86.392 226.296,179.064 "/>
<circle cx="236.776" cy="382.208" r="40.32"/>
<polygon style="fill:#E21B1B;" points="155.608,168.176 446.608,168.176 391.144,323.8 204.072,323.8 "/>
<polygon points="427.696,223.256 360.192,223.256 343.96,251.76 277.128,251.76 283.448,271.488 409.784,271.488 "/>
<circle style="fill:#999999;" cx="236.776" cy="382.208" r="19.6"/>
</svg>